:version 1.10
:name ASF
:units
  mass 1
  length 1
  angle deg
:documentation
  ASF file generated by Kaydara
:root
  axis xyz
  order  tx ty tz rx ry rz
  position 0 0 0
  orientation 0 0 0
:bonedata
  begin
    id 1
    name RightUpLegDummy
    direction -0.65628 -0.754516 0.00165102
    length 4.76918
    axis 0 0 0 xyz
  end
  begin
    id 2
    name RightUpLeg
    direction -0.145584 -0.923362 0.355256
    length 17.9961
    axis -24.7611 -13.1006 1.78531 xyz
    dof rx ry rz
  end
  begin
    id 3
    name RightLeg
    direction 0.263379 0.172355 -0.949171
    length 13.3386
    axis 89.6202 -21.1929 12.3855 xyz
    dof rx ry rz
  end
  begin
    id 4
    name RightFoot
    direction 0.224283 -0.968777 -0.105675
    length 5.86697
    axis 56.995 -39.6905 17.3365 xyz
    dof rx ry rz
  end
  begin
    id 5
    name RightToes
    direction -0.0806345 -0.9037 0.420506
    length 4.75197
    axis 146.825 -39.7828 17.6019 xyz
    dof rx ry rz
  end
  begin
    id 6
    name SpineDummy
    direction -3.39852e-014 1 9.33296e-014
    length 8.13779
    axis 0 0 0 xyz
  end
  begin
    id 7
    name Spine
    direction -0.156609 0.733703 0.661176
    length 7.14978
    axis 41.2365 5.68757 17.0844 xyz
    dof rx ry rz
  end
  begin
    id 8
    name Spine1
    direction 0 0 0
    length 0
    axis 42.8809 47.8308 -3.36039 xyz
    dof rx ry rz
  end
  begin
    id 9
    name HEadDummy
    direction 0.546431 0.701947 0.456819
    length 3.55512
    axis 42.8809 47.8308 -3.36039 xyz
  end
  begin
    id 10
    name HEad
    direction 0.23444 0.828559 0.508457
    length 7.35827
    axis 51.1864 49.2662 27.4903 xyz
    dof rx ry rz
  end
  begin
    id 11
    name LeftShoulder1Dummy
    direction 0.431183 0.475873 -0.766568
    length 2.49352
    axis 42.8809 47.8308 -3.36039 xyz
  end
  begin
    id 12
    name LeftShoulder1
    direction 0.268187 -0.383402 -0.883786
    length 4.48604
    axis -119.517 0.106469 35.1736 xyz
    dof rx ry rz
  end
  begin
    id 13
    name LeftArm
    direction 0.380567 -0.703221 -0.600541
    length 10.1142
    axis -5.41825 36.2925 7.8293 xyz
    dof rx ry rz
  end
  begin
    id 14
    name LeftForeArm
    direction 0.541071 -0.732356 -0.413396
    length 9.39839
    axis 4.65387 33.7604 7.81644 xyz
    dof rx ry rz
  end
  begin
    id 15
    name LeftHand
    direction 0.847511 -0.389379 -0.360707
    length 3.66142
    axis 7.65593 21.1436 -24.6758 xyz
    dof rx ry rz
  end
  begin
    id 16
    name RightShoulderDummy
    direction -0.692546 0.541855 0.476208
    length 2.49352
    axis 42.8809 47.8308 -3.36039 xyz
  end
  begin
    id 17
    name RightShoulder
    direction -0.870808 -0.316653 0.376065
    length 4.48602
    axis 141.571 51.133 -100.254 xyz
    dof rx ry rz
  end
  begin
    id 18
    name RightArm
    direction 0.366897 -0.87275 0.322015
    length 10.1142
    axis 92.3258 71.2036 138.917 xyz
    dof rx ry rz
  end
  begin
    id 19
    name RightForeArm
    direction 0.702487 -0.694568 0.155197
    length 9.39835
    axis 153.863 41.5092 -176.604 xyz
    dof rx ry rz
  end
  begin
    id 20
    name RightHand
    direction 0.79502 -0.601276 0.0800636
    length 3.66142
    axis 154.247 4.59222 142.9 xyz
    dof rx ry rz
  end
  begin
    id 21
    name LeftUpLegDummy
    direction 0.65628 -0.754516 0.00165102
    length 4.76919
    axis 0 0 0 xyz
  end
  begin
    id 22
    name LeftUpLeg
    direction -0.1277 -0.689368 0.713067
    length 17.9961
    axis -48.3385 -17.8675 0.791927 xyz
    dof rx ry rz
  end
  begin
    id 23
    name LeftLeg
    direction 0.109849 -0.991246 -0.0732378
    length 13.3386
    axis -2.05791 -7.30784 1.72042 xyz
    dof rx ry rz
  end
  begin
    id 24
    name LeftFoot
    direction 0.0448355 -0.272614 0.961078
    length 5.86697
    axis -18.7733 -7.89606 10.2113 xyz
    dof rx ry rz
  end
  begin
    id 25
    name LeftToes
    direction -0.18506 0.293668 0.937823
    length 4.75197
    axis 71.2267 -7.89606 10.2113 xyz
    dof rx ry rz
  end
:hierarchy
  begin
    root RightUpLegDummy SpineDummy LeftUpLegDummy
    RightUpLegDummy RightUpLeg
    RightUpLeg RightLeg
    RightLeg RightFoot
    RightFoot RightToes
    SpineDummy Spine
    Spine Spine1
    Spine1 HEadDummy LeftShoulder1Dummy RightShoulderDummy
    HEadDummy HEad
    LeftShoulder1Dummy LeftShoulder1
    LeftShoulder1 LeftArm
    LeftArm LeftForeArm
    LeftForeArm LeftHand
    RightShoulderDummy RightShoulder
    RightShoulder RightArm
    RightArm RightForeArm
    RightForeArm RightHand
    LeftUpLegDummy LeftUpLeg
    LeftUpLeg LeftLeg
    LeftLeg LeftFoot
    LeftFoot LeftToes
  end

:SAMPLES-PER-SECOND 30
:FULLY-SPECIFIED
:DEGREES
615
root  -15.5376 15.3621 -30.9748 160.802 24.6962 -92.7062
RightUpLeg  -44.1072 -12.2933 -42.3936
RightLeg  -109.131 -16.1874 -3.13716
RightFoot  21.7794 9.00974 -22.4398
RightToes  -1.27222e-014 -6.36111e-015 6.36111e-015
Spine  -18.5022 -6.46581 8.13867
Spine1  -1.10666 -13.2865 56.819
HEad  26.2839 -21.6891 -8.28043
LeftShoulder1  6.36111e-015 -1.33558e-015 6.49777e-015
LeftArm  41.5654 50.0275 33.0179
LeftForeArm  13.2124 -46.9081 -3.16921
LeftHand  24.6542 27.2505 34.5472
RightShoulder  -4.77083e-015 -6.36111e-015 -3.18055e-015
RightArm  66.0136 -5.9829 -92.643
RightForeArm  -73.5813 13.523 -67.8379
RightHand  17.5637 -14.3363 -51.2909
LeftUpLeg  32.0221 21.8866 52.974
LeftLeg  -24.4695 -22.5679 3.57281
LeftFoot  -8.40293 5.70048 -25.6333
LeftToes  1.27222e-014 1.09105e-011 6.96064e-012
616
root  -14.9264 15.138 -31.9971 145.436 31.4108 -99.6339
RightUpLeg  -38.5338 -11.4526 -43.6245
RightLeg  -109.028 -16.0842 -3.26554
RightFoot  22.2928 9.78263 -23.6261
RightToes  -1.27222e-014 -6.36111e-015 6.36111e-015
Spine  -17.2927 -7.74105 6.05274
Spine1  3.63566 -13.9535 57.9404
HEad  29.3454 -21.5027 -10.6912
LeftShoulder1  6.36111e-015 -1.33558e-015 6.49777e-015
LeftArm  51.1768 50.5816 39.558
LeftForeArm  13.8734 -56.8908 -1.36241
LeftHand  23.3527 27.0579 32.0988
RightShoulder  -4.77083e-015 -6.36111e-015 -3.18055e-015
RightArm  81.4745 -9.86055 -89.9904
RightForeArm  -55.7101 17.999 -51.8214
RightHand  17.0641 -13.8967 -50.7203
LeftUpLeg  27.8995 20.9846 58.0757
LeftLeg  -28.8013 -13.6303 -1.00099
LeftFoot  -6.06505 4.31325 -17.782
LeftToes  1.27222e-014 1.09105e-011 6.96064e-012
617
root  -14.311 14.98 -33.5107 128.508 37.0256 -111.456
RightUpLeg  -33.6707 -11.2324 -45.0845
RightLeg  -112.125 -15.5277 0.4151
RightFoot  25.2508 8.74913 -22.2039
RightToes  -1.27222e-014 -6.36111e-015 6.36111e-015
Spine  -16.4941 -8.3133 3.44966
Spine1  7.8063 -13.6426 58.1889
HEad  32.4559 -20.7301 -14.1188
LeftShoulder1  6.36111e-015 -1.33558e-015 6.49777e-015
LeftArm  61.5006 49.8954 47.4267
LeftForeArm  11.7839 -64.9497 2.74223
LeftHand  20.6252 25.4697 28.5381
RightShoulder  -4.77083e-015 -6.36111e-015 -3.18055e-015
RightArm  96.1583 -17.8562 -83.4898
RightForeArm  -34.4508 16.5115 -33.0876
RightHand  13.3157 -10.8888 -45.1302
LeftUpLeg  22.0168 18.0874 59.8795
LeftLeg  -33.7664 3.35394 -11.4331
LeftFoot  -10.4826 -2.37976 12.2302
LeftToes  1.27222e-014 1.09105e-011 6.96064e-012
618
root  -14.0041 14.9872 -34.8573 110.334 38.4127 -127.397
RightUpLeg  -30.2026 -10.1588 -47.9556
RightLeg  -112.577 -14.8032 5.25157
RightFoot  25.8582 8.27858 -21.5685
RightToes  -1.27222e-014 -6.36111e-015 6.36111e-015
Spine  -15.847 -8.51244 0.696651
Spine1  11.082 -12.7679 56.9492
HEad  35.1427 -20.8533 -17.4931
LeftShoulder1  6.36111e-015 -1.33558e-015 6.49777e-015
LeftArm  69.4044 47.7054 51.9248
LeftForeArm  7.32813 -70.1824 8.55267
LeftHand  17.9773 23.2163 25.8105
RightShoulder  -4.77083e-015 -6.36111e-015 -3.18055e-015
RightArm  107.62 -29.1111 -77.8283
RightForeArm  -16.9078 5.42199 -15.9253
RightHand  13.0038 -10.8008 -44.2644
LeftUpLeg  15.9375 13.2247 61.7861
LeftLeg  -40.1802 13.0735 -21.023
LeftFoot  -10.732 -4.94551 25.1027
LeftToes  1.27222e-014 1.09105e-011 6.96064e-012
619
root  -13.8144 14.9533 -35.9991 92.7415 35.7757 -143.054
RightUpLeg  -25.6509 -2.21215 -53.2483
RightLeg  -108.93 -12.1727 15.1877
RightFoot  23.098 10.0281 -24.0059
RightToes  -1.27222e-014 -6.36111e-015 6.36111e-015
Spine  -13.9158 -8.85853 -1.61736
Spine1  13.6285 -11.8906 54.3761
HEad  38.8063 -22.1569 -19.9531
LeftShoulder1  6.36111e-015 -1.33558e-015 6.49777e-015
LeftArm  75.2229 45.6586 54.2607
LeftForeArm  4.13477 -75.4918 14.1674
LeftHand  16.2212 22.7276 22.0074
RightShoulder  -4.77083e-015 -6.36111e-015 -3.18055e-015
RightArm  116.868 -45.0833 -71.8545
RightForeArm  -10.3061 -12.3717 -3.54413
RightHand  10.7674 -11.1019 -35.8914
LeftUpLeg  8.46128 14.0134 64.9527
LeftLeg  -39.6768 13.2579 -20.1533
LeftFoot  -8.21416 -1.98526 9.26125
LeftToes  1.27222e-014 1.09105e-011 6.96064e-012
620
root  -13.9353 14.7945 -37.3515 76.9982 29.7203 -158.487
RightUpLeg  -20.4021 5.4174 -55.3301
RightLeg  -106.524 -10.0158 21.4788
RightFoot  23.5013 10.0751 -24.0797
RightToes  -1.27222e-014 -6.36111e-015 6.36111e-015
Spine  -11.5282 -8.82629 -4.24365
Spine1  15.425 -10.5413 52.6234
HEad  43.619 -22.5636 -22.0509
LeftShoulder1  6.36111e-015 -1.33558e-015 6.49777e-015
LeftArm  81.3425 44.5063 57.14
LeftForeArm  4.57878 -80.3773 16.7535
LeftHand  14.1199 22.5984 16.3588
RightShoulder  -4.77083e-015 -6.36111e-015 -3.18055e-015
RightArm  121.757 -43.7507 -83.7015
RightForeArm  -0.428811 -7.1126 8.01232
RightHand  8.75516 -9.81904 -30.6273
LeftUpLeg  -0.372394 17.6815 64.8053
LeftLeg  -37.0612 16.8696 -17.9171
LeftFoot  -11.5567 2.46513 -12.7194
LeftToes  1.27222e-014 1.09105e-011 6.96064e-012
621
root  -14.7022 14.49 -38.2825 68.2555 22.3183 -172.578
RightUpLeg  -13.4893 1.56241 -49.6903
RightLeg  -108.45 -11.3949 16.2938
RightFoot  26.71 8.62271 -22.0921
RightToes  -1.27222e-014 -6.36111e-015 6.36111e-015
Spine  -11.0465 -9.7261 -6.60626
Spine1  18.5136 -9.97049 48.9576
HEad  46.7184 -21.3702 -23.3454
LeftShoulder1  6.36111e-015 -1.33558e-015 6.49777e-015
LeftArm  85.6846 44.2102 56.5625
LeftForeArm  19.0879 -78.0836 2.23666
LeftHand  12.2528 20.4344 14.3117
RightShoulder  -4.77083e-015 -6.36111e-015 -3.18055e-015
RightArm  124.84 -41.5281 -91.3113
RightForeArm  4.36039 -2.97072 8.42814
RightHand  10.8025 -10.8177 -36.5422
LeftUpLeg  -10.3866 19.3653 62.7209
LeftLeg  -34.778 11.7533 -15.2783
LeftFoot  -12.6578 2.15331 -11.673
LeftToes  1.27222e-014 1.09105e-011 6.96064e-012
622
root  -15.4814 14.48 -38.7857 65.0393 12.6628 172.998
RightUpLeg  -9.97477 2.33486 -43.9099
RightLeg  -105.011 -9.36687 18.8315
RightFoot  25.155 7.9324 -21.0363
RightToes  -1.27222e-014 -6.36111e-015 6.36111e-015
Spine  -12.5348 -9.28971 -6.6124
Spine1  21.4784 -8.44986 40.5982
HEad  45.6323 -21.8804 -22.2261
LeftShoulder1  6.36111e-015 -1.33558e-015 6.49777e-015
LeftArm  81.4147 45.7752 43.1755
LeftForeArm  24.3924 -63.0426 -7.23574
LeftHand  12.2949 18.7855 17.3394
RightShoulder  -4.77083e-015 -6.36111e-015 -3.18055e-015
RightArm  123.895 -38.6545 -94.4231
RightForeArm  6.5116 0.610446 6.13753
RightHand  14.5984 -10.9368 -49.2002
LeftUpLeg  -19.539 21.9541 61.1488
LeftLeg  -33.6677 0.105807 -7.43673
LeftFoot  -10.2208 2.12051 -10.2771
LeftToes  1.27222e-014 1.09105e-011 6.96064e-012
